<svg xmlns="http://www.w3.org/2000/svg" width="520" height="220">
  <rect x="210" y="20" width="100" height="40" rx="5" ry="5" fill="#623ce4" />
  <text x="260" y="45" fill="white" font-size="12" text-anchor="middle">Terraform</text>

  <rect x="210" y="90" width="100" height="40" rx="5" ry="5" fill="#ff9900" />
  <text x="260" y="115" fill="white" font-size="12" text-anchor="middle">AWS Provider</text>

  <rect x="50" y="160" width="100" height="40" rx="5" ry="5" fill="#6c6" />
  <text x="100" y="185" fill="white" font-size="12" text-anchor="middle">EC2</text>
  <rect x="210" y="160" width="100" height="40" rx="5" ry="5" fill="#6c6" />
  <text x="260" y="185" fill="white" font-size="12" text-anchor="middle">VPC</text>
  <rect x="370" y="160" width="100" height="40" rx="5" ry="5" fill="#6c6" />
  <text x="420" y="185" fill="white" font-size="12" text-anchor="middle">S3</text>

  <line x1="260" y1="60" x2="260" y2="90" stroke="#fff" marker-end="url(#arrow)" />
  <line x1="260" y1="130" x2="100" y2="160" stroke="#fff" marker-end="url(#arrow)" />
  <line x1="260" y1="130" x2="260" y2="160" stroke="#fff" marker-end="url(#arrow)" />
  <line x1="260" y1="130" x2="420" y2="160" stroke="#fff" marker-end="url(#arrow)" />

  <defs>
    <marker id="arrow" markerWidth="10" markerHeight="10" refX="5" refY="3" orient="auto" markerUnits="strokeWidth">
      <path d="M0,0 L0,6 L9,3 z" fill="#fff" />
    </marker>
  </defs>
</svg>
